<?xml version="1.0" encoding="UTF-8"?>
<!-- Generator: visioncortex VTracer 0.6.3 -->
<svg version="1.1" xmlns="http://www.w3.org/2000/svg" width="1280" height="1280">
<path d="M0 0 C0.7 -0 1.4 -0 2.12 -0.01 C4.45 -0.01 6.79 -0.01 9.13 -0 C10.83 -0.01 12.53 -0.01 14.23 -0.01 C18.92 -0.02 23.61 -0.01 28.3 -0.01 C33.39 -0.01 38.49 -0.02 43.58 -0.02 C53.7 -0.03 63.81 -0.03 73.92 -0.03 C86.03 -0.03 98.15 -0.04 110.26 -0.05 C138.83 -0.06 167.41 -0.07 195.98 -0.07 C210.52 -0.08 225.05 -0.08 239.59 -0.08 C286.21 -0.1 332.83 -0.11 379.45 -0.11 C381.68 -0.11 383.91 -0.11 386.14 -0.11 C390.61 -0.11 395.07 -0.11 399.54 -0.11 C404.77 -0.11 410.01 -0.11 415.24 -0.11 C416.74 -0.11 418.23 -0.11 419.73 -0.11 C467.83 -0.12 515.93 -0.13 564.04 -0.15 C598.6 -0.17 633.17 -0.19 667.73 -0.19 C668.8 -0.19 668.8 -0.19 669.89 -0.19 C685.49 -0.19 701.09 -0.19 716.69 -0.2 C722.27 -0.2 727.85 -0.2 733.43 -0.2 C734.82 -0.2 736.21 -0.2 737.6 -0.2 C759.73 -0.2 781.87 -0.21 804 -0.22 C826.91 -0.24 849.82 -0.24 872.74 -0.23 C885.95 -0.23 899.16 -0.23 912.38 -0.25 C921.19 -0.26 930.01 -0.26 938.83 -0.25 C943.86 -0.24 948.89 -0.24 953.92 -0.25 C958.49 -0.26 963.07 -0.26 967.64 -0.25 C969.29 -0.25 970.93 -0.25 972.58 -0.26 C980.84 -0.3 988.06 -0.12 995.77 3.13 C996.94 3.52 998.12 3.91 999.33 4.32 C1000.13 4.58 1000.94 4.85 1001.77 5.13 C1001.77 5.79 1001.77 6.45 1001.77 7.13 C1002.51 7.4 1003.25 7.66 1004.02 7.94 C1009.03 10.1 1011.06 12.47 1013.77 17.13 C1015 18.52 1015 18.52 1016.27 19.94 C1020.74 25.2 1022.07 31.41 1022.77 38.13 C1023.1 38.13 1023.43 38.13 1023.77 38.13 C1023.77 294.87 1023.77 551.61 1023.77 816.13 C1024.43 816.13 1025.09 816.13 1025.77 816.13 C1027.99 820.75 1029.15 823.9 1028.77 829.13 C1029.76 829.46 1030.75 829.79 1031.77 830.13 C1033.78 833.84 1033.96 836.96 1033.77 841.13 C1034.43 841.13 1035.09 841.13 1035.77 841.13 C1037.99 845.75 1039.15 848.9 1038.77 854.13 C1039.76 854.46 1040.75 854.79 1041.77 855.13 C1043.78 858.84 1043.96 861.96 1043.77 866.13 C1044.43 866.13 1045.09 866.13 1045.77 866.13 C1047.99 870.75 1049.15 873.9 1048.77 879.13 C1049.76 879.46 1050.75 879.79 1051.77 880.13 C1053.78 883.84 1053.96 886.96 1053.77 891.13 C1054.43 891.13 1055.09 891.13 1055.77 891.13 C1057.99 895.75 1059.15 898.9 1058.77 904.13 C1059.76 904.46 1060.75 904.79 1061.77 905.13 C1063.78 908.84 1063.96 911.96 1063.77 916.13 C1064.43 916.13 1065.09 916.13 1065.77 916.13 C1067.99 920.75 1069.15 923.9 1068.77 929.13 C1069.76 929.46 1070.75 929.79 1071.77 930.13 C1073.78 933.84 1073.96 936.96 1073.77 941.13 C1074.43 941.13 1075.09 941.13 1075.77 941.13 C1077.99 945.75 1079.15 948.9 1078.77 954.13 C1079.76 954.46 1080.75 954.79 1081.77 955.13 C1083.78 958.84 1083.96 961.96 1083.77 966.13 C1084.43 966.13 1085.09 966.13 1085.77 966.13 C1087.99 970.75 1089.15 973.9 1088.77 979.13 C1089.76 979.46 1090.75 979.79 1091.77 980.13 C1093.78 983.84 1093.96 986.96 1093.77 991.13 C1094.43 991.13 1095.09 991.13 1095.77 991.13 C1097.99 995.75 1099.15 998.9 1098.77 1004.13 C1099.76 1004.46 1100.75 1004.79 1101.77 1005.13 C1102.95 1008.19 1102.95 1008.19 1103.77 1011.13 C1103.44 1011.46 1103.11 1011.79 1102.77 1012.13 C1103.2 1012.64 1103.63 1013.16 1104.08 1013.69 C1107.89 1019.2 1109.14 1023.78 1109.16 1030.45 C1109.16 1031.15 1109.17 1031.84 1109.17 1032.56 C1109.18 1034.83 1109.18 1037.11 1109.17 1039.39 C1109.17 1040.98 1109.17 1042.57 1109.17 1044.16 C1109.18 1047.49 1109.17 1050.82 1109.16 1054.14 C1109.14 1058.4 1109.15 1062.66 1109.17 1066.92 C1109.18 1070.2 1109.18 1073.48 1109.17 1076.77 C1109.17 1078.34 1109.17 1079.91 1109.18 1081.48 C1109.18 1083.67 1109.17 1085.87 1109.16 1088.06 C1109.15 1089.93 1109.15 1089.93 1109.15 1091.84 C1108.7 1095.69 1107.53 1098.37 1104.77 1101.13 C1104.77 1102.12 1104.77 1103.11 1104.77 1104.13 C1102.65 1106.8 1101.33 1107.97 1098.02 1108.88 C1097.27 1108.96 1096.53 1109.04 1095.77 1109.13 C1095.77 1109.46 1095.77 1109.79 1095.77 1110.13 C1058.7 1110.14 1021.64 1110.15 984.57 1110.16 C983.85 1110.16 983.12 1110.16 982.38 1110.16 C904.68 1110.18 826.99 1110.2 749.29 1110.21 C747.57 1110.21 745.84 1110.21 744.12 1110.21 C707.9 1110.22 671.69 1110.22 635.48 1110.23 C617.29 1110.23 599.1 1110.23 580.91 1110.24 C578.16 1110.24 575.42 1110.24 572.68 1110.24 C530.41 1110.24 488.14 1110.25 445.88 1110.26 C444.52 1110.27 444.52 1110.27 443.12 1110.27 C428.47 1110.27 413.81 1110.27 399.15 1110.28 C356.94 1110.29 314.73 1110.3 272.53 1110.31 C271.23 1110.31 271.23 1110.31 269.9 1110.31 C250.86 1110.31 231.82 1110.31 212.77 1110.32 C205.11 1110.32 197.45 1110.32 189.79 1110.32 C188.95 1110.32 188.11 1110.32 187.25 1110.32 C160.21 1110.32 133.17 1110.33 106.13 1110.34 C78.9 1110.35 51.68 1110.36 24.45 1110.35 C20.69 1110.35 16.94 1110.35 13.18 1110.35 C12.44 1110.35 11.7 1110.35 10.95 1110.35 C-0.74 1110.35 -12.43 1110.36 -24.12 1110.37 C-35.6 1110.38 -47.08 1110.38 -58.56 1110.37 C-64.71 1110.37 -70.86 1110.37 -77 1110.38 C-82.59 1110.39 -88.17 1110.38 -93.75 1110.38 C-95.77 1110.37 -97.78 1110.38 -99.8 1110.38 C-102.52 1110.39 -105.24 1110.38 -107.96 1110.38 C-108.75 1110.38 -109.54 1110.39 -110.36 1110.39 C-117.72 1110.34 -120.81 1107.96 -126.23 1103.13 C-131.78 1094.81 -131.65 1086.19 -131.56 1076.46 C-131.56 1075.05 -131.56 1073.64 -131.56 1072.24 C-131.55 1069.3 -131.54 1066.37 -131.51 1063.43 C-131.49 1059.69 -131.47 1055.94 -131.47 1052.19 C-131.46 1048.59 -131.45 1044.99 -131.44 1041.4 C-131.43 1040.72 -131.43 1040.04 -131.43 1039.34 C-131.42 1037.41 -131.41 1035.47 -131.39 1033.54 C-131.39 1032.44 -131.38 1031.35 -131.37 1030.22 C-131.23 1027.12 -130.81 1024.18 -130.23 1021.13 C-129.57 1021.13 -128.91 1021.13 -128.23 1021.13 C-128.11 1020.47 -127.99 1019.81 -127.86 1019.13 C-127.09 1015.43 -126.16 1011.79 -125.23 1008.13 C-124.57 1008.13 -123.91 1008.13 -123.23 1008.13 C-123.11 1007.45 -122.99 1006.77 -122.86 1006.07 C-122.14 1002.7 -121.2 999.43 -120.23 996.13 C-119.57 996.13 -118.91 996.13 -118.23 996.13 C-118.11 995.47 -117.99 994.81 -117.86 994.13 C-117.09 990.43 -116.16 986.79 -115.23 983.13 C-114.57 983.13 -113.91 983.13 -113.23 983.13 C-113.11 982.45 -112.99 981.77 -112.86 981.07 C-112.14 977.7 -111.2 974.43 -110.23 971.13 C-109.57 971.13 -108.91 971.13 -108.23 971.13 C-108.11 970.47 -107.99 969.81 -107.86 969.13 C-107.09 965.43 -106.16 961.79 -105.23 958.13 C-104.57 958.13 -103.91 958.13 -103.23 958.13 C-103.11 957.45 -102.99 956.77 -102.86 956.07 C-102.14 952.7 -101.2 949.43 -100.23 946.13 C-99.57 946.13 -98.91 946.13 -98.23 946.13 C-98.11 945.47 -97.99 944.81 -97.86 944.13 C-97.09 940.43 -96.16 936.79 -95.23 933.13 C-94.57 933.13 -93.91 933.13 -93.23 933.13 C-93.11 932.45 -92.99 931.77 -92.86 931.07 C-92.14 927.7 -91.2 924.43 -90.23 921.13 C-89.57 921.13 -88.91 921.13 -88.23 921.13 C-88.11 920.47 -87.99 919.81 -87.86 919.13 C-87.09 915.43 -86.16 911.79 -85.23 908.13 C-84.57 908.13 -83.91 908.13 -83.23 908.13 C-83.11 907.45 -82.99 906.77 -82.86 906.07 C-82.14 902.7 -81.2 899.43 -80.23 896.13 C-79.57 896.13 -78.91 896.13 -78.23 896.13 C-78.11 895.47 -77.99 894.81 -77.86 894.13 C-77.09 890.43 -76.16 886.79 -75.23 883.13 C-74.57 883.13 -73.91 883.13 -73.23 883.13 C-73.11 882.45 -72.99 881.77 -72.86 881.07 C-72.14 877.7 -71.2 874.43 -70.23 871.13 C-69.57 871.13 -68.91 871.13 -68.23 871.13 C-68.11 870.47 -67.99 869.81 -67.86 869.13 C-67.09 865.43 -66.16 861.79 -65.23 858.13 C-64.57 858.13 -63.91 858.13 -63.23 858.13 C-63.11 857.45 -62.99 856.77 -62.86 856.07 C-62.14 852.7 -61.2 849.43 -60.23 846.13 C-59.57 846.13 -58.91 846.13 -58.23 846.13 C-58.11 845.47 -57.99 844.81 -57.86 844.13 C-57.09 840.43 -56.16 836.79 -55.23 833.13 C-54.57 833.13 -53.91 833.13 -53.23 833.13 C-53.11 832.45 -52.99 831.77 -52.86 831.07 C-52.14 827.7 -51.2 824.43 -50.23 821.13 C-49.57 821.13 -48.91 821.13 -48.23 821.13 C-46.45 812.73 -46.09 804.85 -46.1 796.28 C-46.1 794.97 -46.1 793.67 -46.1 792.33 C-46.09 788.7 -46.09 785.07 -46.09 781.45 C-46.09 777.51 -46.09 773.56 -46.09 769.62 C-46.08 762.71 -46.08 755.8 -46.08 748.89 C-46.08 738.61 -46.07 728.33 -46.06 718.06 C-46.05 701.83 -46.04 685.6 -46.03 669.37 C-46.02 643.6 -46.01 617.83 -45.98 592.07 C-45.97 582.16 -45.97 572.24 -45.96 562.33 C-45.96 560.68 -45.96 560.68 -45.96 558.99 C-45.93 532.77 -45.91 506.55 -45.89 480.33 C-45.89 478.61 -45.89 478.61 -45.89 476.86 C-45.87 450.09 -45.86 423.32 -45.84 396.56 C-45.84 395.4 -45.84 394.25 -45.84 393.07 C-45.84 383.79 -45.83 374.51 -45.83 365.23 C-45.81 326.98 -45.79 288.73 -45.75 250.47 C-45.74 245.07 -45.74 239.67 -45.73 234.27 C-45.73 233.21 -45.73 232.14 -45.73 231.05 C-45.71 213.93 -45.71 196.82 -45.7 179.71 C-45.7 162.51 -45.69 145.31 -45.67 128.12 C-45.65 117.9 -45.65 107.68 -45.66 97.46 C-45.66 90.64 -45.65 83.81 -45.64 76.98 C-45.63 73.09 -45.62 69.21 -45.63 65.32 C-45.64 61.12 -45.63 56.93 -45.61 52.73 C-45.62 51.53 -45.63 50.33 -45.63 49.1 C-45.57 39.19 -44.91 26.15 -37.74 18.55 C-36.7 17.52 -35.63 16.51 -34.54 15.52 C-32.97 14.04 -32.97 14.04 -32.23 11.13 C-29.98 9.63 -29.98 9.63 -27.23 8.13 C-26.09 7.42 -26.09 7.42 -24.92 6.69 C-22.75 5.43 -20.58 4.19 -18.36 3 C-17.74 2.67 -17.13 2.34 -16.49 1.99 C-11.23 -0.03 -5.57 0 0 0 Z M1021.77 806.13 C1022.77 810.13 1022.77 810.13 1022.77 810.13 Z M1106.77 1087.13 C1106.77 1089.77 1106.77 1092.41 1106.77 1095.13 C1107.1 1095.13 1107.43 1095.13 1107.77 1095.13 C1107.77 1092.49 1107.77 1089.85 1107.77 1087.13 C1107.44 1087.13 1107.11 1087.13 1106.77 1087.13 Z M1104.77 1093.13 C1105.77 1095.13 1105.77 1095.13 1105.77 1095.13 Z M1101.77 1101.13 C1101.77 1101.79 1101.77 1102.45 1101.77 1103.13 C1102.43 1102.8 1103.09 1102.47 1103.77 1102.13 C1103.11 1101.8 1102.45 1101.47 1101.77 1101.13 Z M1099.77 1102.13 C1099.11 1103.45 1098.45 1104.77 1097.77 1106.13 C1099.09 1105.8 1100.41 1105.47 1101.77 1105.13 C1101.11 1104.14 1100.45 1103.15 1099.77 1102.13 Z " fill="#064357" transform="translate(150.23259055614471,83.87234950065613)"/>
<path d="M0 0 C1.34 -0.03 2.68 -0.02 4.02 0 C5.13 -0.01 5.13 -0.01 6.27 -0.02 C8.78 -0.03 11.29 -0.01 13.8 0.01 C15.62 0 17.44 -0 19.25 -0.01 C24.29 -0.03 29.32 -0.01 34.35 0.01 C39.8 0.02 45.26 0.01 50.72 0 C60.3 -0.01 69.88 -0 79.46 0.01 C93.7 0.04 107.95 0.04 122.19 0.03 C146.15 0.02 170.11 0.04 194.07 0.06 C217.81 0.09 241.54 0.11 265.28 0.11 C266.38 0.11 266.38 0.11 267.51 0.11 C274.24 0.11 280.97 0.11 287.7 0.11 C304.43 0.11 321.16 0.12 337.89 0.12 C338.65 0.12 339.41 0.12 340.2 0.12 C377.27 0.13 414.35 0.16 451.43 0.19 C502.98 0.23 554.54 0.26 606.1 0.27 C607.71 0.27 609.31 0.27 610.91 0.27 C618.91 0.28 626.91 0.28 634.91 0.28 C635.7 0.28 636.49 0.28 637.3 0.28 C641.28 0.28 645.26 0.28 649.24 0.28 C703.58 0.3 757.92 0.32 812.26 0.34 C822.65 0.35 833.04 0.35 843.44 0.36 C875.4 0.37 907.36 0.39 939.32 0.41 C952.23 0.42 965.15 0.43 978.06 0.44 C988.77 0.44 999.47 0.45 1010.17 0.46 C1015.56 0.47 1020.95 0.47 1026.35 0.47 C1031.24 0.47 1036.14 0.48 1041.04 0.48 C1042.81 0.49 1044.58 0.49 1046.35 0.48 C1048.74 0.48 1051.12 0.49 1053.51 0.49 C1054.2 0.49 1054.9 0.49 1055.61 0.49 C1058.83 0.5 1061.75 0.64 1064.83 1.62 C1064.83 2.94 1064.83 4.26 1064.83 5.62 C1065.49 5.62 1066.15 5.62 1066.83 5.62 C1069.05 10.25 1070.21 13.39 1069.83 18.62 C1070.82 18.95 1071.81 19.28 1072.83 19.62 C1074.84 23.33 1075.02 26.45 1074.83 30.62 C1075.49 30.62 1076.15 30.62 1076.83 30.62 C1079.05 35.25 1080.21 38.39 1079.83 43.62 C1080.82 43.95 1081.81 44.28 1082.83 44.62 C1084.84 48.33 1085.02 51.45 1084.83 55.62 C1085.49 55.62 1086.15 55.62 1086.83 55.62 C1089.05 60.25 1090.21 63.39 1089.83 68.62 C1090.82 68.95 1091.81 69.28 1092.83 69.62 C1094.84 73.33 1095.02 76.45 1094.83 80.62 C1095.49 80.62 1096.15 80.62 1096.83 80.62 C1099.05 85.25 1100.21 88.39 1099.83 93.62 C1100.82 93.95 1101.81 94.28 1102.83 94.62 C1104.84 98.33 1105.02 101.45 1104.83 105.62 C1105.49 105.62 1106.15 105.62 1106.83 105.62 C1109.05 110.25 1110.21 113.39 1109.83 118.62 C1110.82 118.95 1111.81 119.28 1112.83 119.62 C1114.84 123.33 1115.02 126.45 1114.83 130.62 C1115.49 130.62 1116.15 130.62 1116.83 130.62 C1119.05 135.25 1120.21 138.39 1119.83 143.62 C1120.82 143.95 1121.81 144.28 1122.83 144.62 C1124.84 148.33 1125.02 151.45 1124.83 155.62 C1125.49 155.62 1126.15 155.62 1126.83 155.62 C1129.05 160.25 1130.21 163.39 1129.83 168.62 C1130.82 168.95 1131.81 169.28 1132.83 169.62 C1134.84 173.33 1135.02 176.45 1134.83 180.62 C1135.49 180.62 1136.15 180.62 1136.83 180.62 C1139.05 185.25 1140.21 188.39 1139.83 193.62 C1140.82 193.95 1141.81 194.28 1142.83 194.62 C1144.02 197.69 1144.02 197.69 1144.83 200.62 C1144.5 200.95 1144.17 201.28 1143.83 201.62 C1144.26 202.14 1144.7 202.66 1145.14 203.19 C1148.96 208.7 1150.2 213.28 1150.22 219.95 C1150.22 220.64 1150.23 221.34 1150.23 222.06 C1150.25 224.33 1150.24 226.61 1150.23 228.88 C1150.23 230.47 1150.23 232.07 1150.24 233.66 C1150.24 236.99 1150.23 240.31 1150.22 243.64 C1150.2 247.9 1150.21 252.15 1150.23 256.41 C1150.24 259.7 1150.24 262.98 1150.23 266.26 C1150.23 267.83 1150.23 269.41 1150.24 270.98 C1150.25 273.17 1150.23 275.36 1150.22 277.56 C1150.21 279.43 1150.21 279.43 1150.21 281.34 C1149.76 285.19 1148.59 287.86 1145.83 290.62 C1145.83 291.61 1145.83 292.6 1145.83 293.62 C1143.71 296.29 1142.39 297.47 1139.08 298.37 C1138.34 298.46 1137.59 298.54 1136.83 298.62 C1136.83 298.95 1136.83 299.28 1136.83 299.62 C1099.76 299.63 1062.7 299.65 1025.63 299.66 C1024.91 299.66 1024.18 299.66 1023.44 299.66 C945.74 299.68 868.05 299.7 790.35 299.71 C788.63 299.71 786.9 299.71 785.18 299.71 C748.96 299.72 712.75 299.72 676.54 299.73 C658.35 299.73 640.16 299.73 621.97 299.73 C619.23 299.73 616.48 299.73 613.74 299.73 C571.47 299.74 529.21 299.75 486.94 299.76 C485.58 299.76 485.58 299.76 484.19 299.76 C469.53 299.77 454.87 299.77 440.21 299.78 C398 299.79 355.8 299.8 313.59 299.81 C312.29 299.81 312.29 299.81 310.96 299.81 C291.92 299.81 272.88 299.81 253.84 299.81 C246.17 299.81 238.51 299.81 230.85 299.81 C230.01 299.81 229.18 299.81 228.31 299.81 C201.27 299.82 174.23 299.82 147.19 299.84 C119.97 299.85 92.74 299.85 65.51 299.85 C61.76 299.85 58 299.85 54.24 299.85 C53.5 299.85 52.77 299.85 52.01 299.85 C40.32 299.85 28.63 299.86 16.94 299.86 C5.46 299.87 -6.02 299.87 -17.5 299.87 C-23.65 299.86 -29.8 299.86 -35.94 299.87 C-41.52 299.88 -47.11 299.88 -52.69 299.87 C-54.71 299.87 -56.72 299.87 -58.74 299.88 C-61.46 299.89 -64.18 299.88 -66.9 299.87 C-67.69 299.88 -68.48 299.88 -69.29 299.89 C-76.65 299.84 -79.75 297.46 -85.17 292.62 C-90.72 284.3 -90.59 275.69 -90.5 265.96 C-90.5 264.55 -90.49 263.14 -90.49 261.73 C-90.49 258.8 -90.47 255.86 -90.45 252.93 C-90.42 249.18 -90.41 245.43 -90.41 241.68 C-90.4 238.09 -90.39 234.49 -90.37 230.89 C-90.37 230.21 -90.37 229.54 -90.37 228.84 C-90.36 226.9 -90.35 224.97 -90.33 223.04 C-90.33 221.94 -90.32 220.84 -90.31 219.71 C-90.17 216.61 -89.75 213.67 -89.17 210.62 C-88.51 210.62 -87.85 210.62 -87.17 210.62 C-86.99 209.63 -86.99 209.63 -86.8 208.62 C-86.03 204.93 -85.1 201.28 -84.17 197.62 C-83.51 197.62 -82.85 197.62 -82.17 197.62 C-82.05 196.94 -81.92 196.26 -81.8 195.56 C-81.08 192.2 -80.14 188.92 -79.17 185.62 C-78.51 185.62 -77.85 185.62 -77.17 185.62 C-77.05 184.96 -76.92 184.3 -76.8 183.62 C-76.03 179.93 -75.1 176.28 -74.17 172.62 C-73.51 172.62 -72.85 172.62 -72.17 172.62 C-72.05 171.94 -71.92 171.26 -71.8 170.56 C-71.08 167.2 -70.14 163.92 -69.17 160.62 C-68.51 160.62 -67.85 160.62 -67.17 160.62 C-67.05 159.96 -66.92 159.3 -66.8 158.62 C-66.03 154.93 -65.1 151.28 -64.17 147.62 C-63.51 147.62 -62.85 147.62 -62.17 147.62 C-62.05 146.94 -61.92 146.26 -61.8 145.56 C-61.08 142.2 -60.14 138.92 -59.17 135.62 C-58.51 135.62 -57.85 135.62 -57.17 135.62 C-56.99 134.63 -56.99 134.63 -56.8 133.62 C-56.03 129.93 -55.1 126.28 -54.17 122.62 C-53.51 122.62 -52.85 122.62 -52.17 122.62 C-52.05 121.94 -51.92 121.26 -51.8 120.56 C-51.08 117.2 -50.14 113.92 -49.17 110.62 C-48.51 110.62 -47.85 110.62 -47.17 110.62 C-46.99 109.63 -46.99 109.63 -46.8 108.62 C-46.03 104.93 -45.1 101.28 -44.17 97.62 C-43.51 97.62 -42.85 97.62 -42.17 97.62 C-42.05 96.94 -41.92 96.26 -41.8 95.56 C-41.08 92.2 -40.14 88.92 -39.17 85.62 C-38.51 85.62 -37.85 85.62 -37.17 85.62 C-36.99 84.63 -36.99 84.63 -36.8 83.62 C-36.03 79.93 -35.1 76.28 -34.17 72.62 C-33.51 72.62 -32.85 72.62 -32.17 72.62 C-32.05 71.94 -31.92 71.26 -31.8 70.56 C-31.08 67.2 -30.14 63.92 -29.17 60.62 C-28.51 60.62 -27.85 60.62 -27.17 60.62 C-27.05 59.96 -26.92 59.3 -26.8 58.62 C-26.03 54.93 -25.1 51.28 -24.17 47.62 C-23.51 47.62 -22.85 47.62 -22.17 47.62 C-21.99 46.6 -21.99 46.6 -21.8 45.56 C-21.08 42.2 -20.14 38.92 -19.17 35.62 C-18.51 35.62 -17.85 35.62 -17.17 35.62 C-17.05 34.96 -16.92 34.3 -16.8 33.62 C-16.03 29.93 -15.1 26.28 -14.17 22.62 C-13.51 22.62 -12.85 22.62 -12.17 22.62 C-11.99 21.6 -11.99 21.6 -11.8 20.56 C-11.08 17.2 -10.14 13.92 -9.17 10.62 C-8.51 10.62 -7.85 10.62 -7.17 10.62 C-7.07 9.9 -6.96 9.18 -6.86 8.44 C-5.73 3.82 -4.96 0.98 0 0 Z M1147.83 276.62 C1147.83 279.26 1147.83 281.9 1147.83 284.62 C1148.16 284.62 1148.49 284.62 1148.83 284.62 C1148.83 281.98 1148.83 279.34 1148.83 276.62 C1148.5 276.62 1148.17 276.62 1147.83 276.62 Z M1145.83 282.62 C1146.83 284.62 1146.83 284.62 1146.83 284.62 Z M1142.83 290.62 C1142.83 291.28 1142.83 291.94 1142.83 292.62 C1143.49 292.29 1144.15 291.96 1144.83 291.62 C1144.17 291.29 1143.51 290.96 1142.83 290.62 Z M1140.83 291.62 C1140.17 292.94 1139.51 294.26 1138.83 295.62 C1140.15 295.29 1141.47 294.96 1142.83 294.62 C1142.17 293.63 1141.51 292.64 1140.83 291.62 Z " fill="#C5D9E6" transform="translate(109.171167191118,894.3761715069413)"/>
<path d="M0 0 C0.7 -0 1.4 -0 2.12 -0.01 C4.45 -0.01 6.79 -0.01 9.13 -0 C10.83 -0.01 12.53 -0.01 14.23 -0.01 C18.92 -0.02 23.61 -0.01 28.3 -0.01 C33.39 -0.01 38.49 -0.02 43.58 -0.02 C53.7 -0.03 63.81 -0.03 73.92 -0.03 C86.03 -0.03 98.15 -0.04 110.26 -0.05 C138.83 -0.06 167.41 -0.07 195.98 -0.07 C210.52 -0.08 225.05 -0.08 239.59 -0.08 C286.21 -0.1 332.83 -0.11 379.45 -0.11 C381.68 -0.11 383.91 -0.11 386.14 -0.11 C390.61 -0.11 395.07 -0.11 399.54 -0.11 C404.77 -0.11 410.01 -0.11 415.24 -0.11 C416.74 -0.11 418.23 -0.11 419.73 -0.11 C467.83 -0.12 515.93 -0.13 564.04 -0.15 C598.6 -0.17 633.17 -0.19 667.73 -0.19 C668.8 -0.19 668.8 -0.19 669.89 -0.19 C685.49 -0.19 701.09 -0.19 716.69 -0.2 C722.27 -0.2 727.85 -0.2 733.43 -0.2 C734.82 -0.2 736.21 -0.2 737.6 -0.2 C759.73 -0.2 781.87 -0.21 804 -0.22 C826.91 -0.24 849.82 -0.24 872.74 -0.23 C885.95 -0.23 899.16 -0.23 912.38 -0.25 C921.19 -0.26 930.01 -0.26 938.83 -0.25 C943.86 -0.24 948.89 -0.24 953.92 -0.25 C958.49 -0.26 963.07 -0.26 967.64 -0.25 C969.29 -0.25 970.93 -0.25 972.58 -0.26 C980.84 -0.3 988.06 -0.12 995.77 3.13 C996.94 3.52 998.12 3.91 999.33 4.32 C1000.13 4.58 1000.94 4.85 1001.77 5.13 C1001.77 5.79 1001.77 6.45 1001.77 7.13 C1002.51 7.4 1003.25 7.66 1004.02 7.94 C1009.03 10.1 1011.06 12.47 1013.77 17.13 C1015 18.52 1015 18.52 1016.27 19.94 C1020.74 25.2 1022.07 31.41 1022.77 38.13 C1023.1 38.13 1023.43 38.13 1023.77 38.13 C1023.77 293.22 1023.77 548.31 1023.77 811.13 C1019.86 812.1 1016.42 812.27 1012.44 812.25 C1011.7 812.25 1010.95 812.25 1010.19 812.26 C1007.67 812.26 1005.16 812.25 1002.64 812.25 C1000.82 812.25 999 812.25 997.18 812.25 C992.14 812.26 987.11 812.25 982.07 812.25 C976.6 812.25 971.13 812.25 965.67 812.25 C956.07 812.25 946.48 812.25 936.89 812.25 C922.62 812.24 908.36 812.24 894.09 812.24 C870.1 812.24 846.1 812.24 822.11 812.23 C798.35 812.23 774.58 812.22 750.81 812.22 C750.08 812.22 749.34 812.22 748.58 812.22 C741.84 812.22 735.1 812.22 728.37 812.22 C711.62 812.22 694.87 812.22 678.12 812.22 C677.35 812.22 676.59 812.22 675.8 812.22 C638.69 812.22 601.57 812.21 564.45 812.2 C551.57 812.2 538.68 812.2 525.8 812.2 C524.6 812.2 524.6 812.2 523.38 812.2 C486.24 812.19 449.11 812.19 411.98 812.18 C409.57 812.18 407.16 812.18 404.74 812.18 C388.77 812.18 372.8 812.18 356.82 812.18 C325.04 812.18 293.26 812.17 261.47 812.17 C259.96 812.17 258.44 812.17 256.93 812.17 C175.21 812.16 93.48 812.15 -45.23 812.13 C-46.25 809.07 -46.36 807.03 -46.35 803.83 C-46.36 802.17 -46.36 802.17 -46.36 800.48 C-46.36 799.25 -46.35 798.03 -46.35 796.77 C-46.35 795.47 -46.35 794.17 -46.35 792.83 C-46.35 789.2 -46.34 785.57 -46.34 781.94 C-46.33 778 -46.33 774.06 -46.33 770.11 C-46.33 762.29 -46.32 754.46 -46.31 746.63 C-46.3 737.26 -46.29 727.88 -46.29 718.51 C-46.28 695.85 -46.25 673.2 -46.23 650.54 C-46.22 639.82 -46.21 629.11 -46.2 618.39 C-46.16 581.72 -46.12 545.04 -46.08 508.37 C-46.08 506.06 -46.07 503.76 -46.07 501.46 C-46.07 499.15 -46.07 496.84 -46.06 494.53 C-46.06 489.9 -46.05 485.27 -46.05 480.64 C-46.04 479.49 -46.04 478.34 -46.04 477.16 C-46 439.92 -45.96 402.68 -45.94 365.45 C-45.91 326.09 -45.87 286.74 -45.82 247.38 C-45.82 243.06 -45.81 238.74 -45.81 234.42 C-45.81 233.36 -45.81 232.3 -45.8 231.2 C-45.78 214.08 -45.77 196.95 -45.76 179.83 C-45.76 162.62 -45.74 145.41 -45.71 128.19 C-45.69 117.97 -45.68 107.74 -45.68 97.51 C-45.68 90.68 -45.67 83.85 -45.65 77.02 C-45.64 73.12 -45.64 69.23 -45.64 65.34 C-45.65 61.14 -45.64 56.94 -45.62 52.74 C-45.63 51.54 -45.63 50.34 -45.64 49.11 C-45.56 39.2 -44.92 26.15 -37.74 18.55 C-36.7 17.52 -35.63 16.51 -34.54 15.52 C-32.97 14.04 -32.97 14.04 -32.23 11.13 C-29.98 9.63 -29.98 9.63 -27.23 8.13 C-26.47 7.65 -25.71 7.18 -24.92 6.69 C-22.75 5.43 -20.58 4.19 -18.36 3 C-17.74 2.67 -17.13 2.34 -16.49 1.99 C-11.23 -0.03 -5.57 0 0 0 Z M46.02 95 C41.55 101.2 41.48 106.92 41.51 114.29 C41.51 115.32 41.51 116.34 41.5 117.4 C41.49 120.86 41.5 124.31 41.51 127.76 C41.5 130.26 41.5 132.75 41.5 135.25 C41.49 140.68 41.49 146.11 41.49 151.55 C41.49 159.63 41.49 167.71 41.48 175.78 C41.46 191.05 41.46 206.32 41.47 221.59 C41.47 233.38 41.47 245.17 41.46 256.96 C41.46 258.65 41.46 260.34 41.46 262.03 C41.46 264.59 41.46 267.14 41.46 269.69 C41.45 293.41 41.44 317.13 41.45 340.85 C41.45 341.75 41.45 342.64 41.45 343.56 C41.45 348.1 41.45 352.63 41.45 357.17 C41.45 358.07 41.45 358.97 41.45 359.89 C41.45 361.71 41.45 363.54 41.45 365.36 C41.46 393.69 41.45 422.03 41.43 450.37 C41.41 482.2 41.4 514.03 41.4 545.85 C41.4 549.25 41.4 552.64 41.4 556.03 C41.4 556.87 41.41 557.7 41.41 558.56 C41.41 571.18 41.4 583.8 41.39 596.42 C41.38 610.77 41.38 625.12 41.39 639.47 C41.39 647.5 41.39 655.53 41.38 663.57 C41.37 669.56 41.38 675.55 41.39 681.55 C41.39 683.97 41.39 686.4 41.38 688.83 C41.37 692.12 41.38 695.42 41.39 698.71 C41.39 699.66 41.38 700.61 41.37 701.58 C41.43 708.67 42.41 714.41 47.2 719.94 C48.05 720.66 48.9 721.38 49.77 722.13 C50.34 722.68 50.92 723.24 51.52 723.82 C59.13 728.26 68.69 727.41 77.19 727.38 C78.65 727.38 80.12 727.38 81.58 727.39 C85.6 727.4 89.63 727.39 93.65 727.38 C98.03 727.38 102.4 727.39 106.78 727.39 C114.45 727.4 122.13 727.4 129.8 727.39 C141.21 727.39 152.61 727.39 164.02 727.4 C184.4 727.41 204.77 727.41 225.15 727.4 C242.97 727.39 260.8 727.39 278.63 727.4 C280.41 727.4 280.41 727.4 282.22 727.4 C287.01 727.4 291.81 727.4 296.61 727.4 C341.63 727.4 386.65 727.4 431.68 727.39 C471.69 727.38 511.7 727.38 551.71 727.39 C596.65 727.4 641.59 727.4 686.53 727.4 C691.32 727.4 696.11 727.4 700.9 727.4 C702.67 727.4 702.67 727.4 704.47 727.39 C722.29 727.39 740.11 727.4 757.93 727.4 C778.19 727.41 798.45 727.4 818.71 727.39 C830.05 727.39 841.4 727.39 852.74 727.39 C860.31 727.4 867.88 727.4 875.45 727.39 C879.77 727.38 884.09 727.38 888.41 727.39 C892.33 727.4 896.26 727.39 900.19 727.38 C901.6 727.38 903.01 727.38 904.42 727.39 C919.07 727.62 919.07 727.62 931.77 721.13 C935.74 715.9 937.89 711.37 937.9 704.76 C937.9 703.89 937.9 703.01 937.9 702.11 C937.9 701.15 937.9 700.2 937.9 699.21 C937.9 698.19 937.9 697.16 937.91 696.11 C937.91 692.65 937.91 689.19 937.91 685.73 C937.91 683.24 937.91 680.75 937.92 678.25 C937.92 672.1 937.93 665.95 937.93 659.8 C937.93 652.43 937.93 645.06 937.94 637.7 C937.96 619.89 937.96 602.09 937.97 584.28 C937.97 575.86 937.97 567.44 937.98 559.02 C937.99 530.2 938 501.38 938 472.57 C938.01 470.76 938.01 468.95 938.01 467.14 C938.01 465.33 938.01 463.51 938.01 461.7 C938.01 458.06 938.01 454.42 938.01 450.78 C938.01 449.88 938.01 448.98 938.01 448.05 C938.01 418.79 938.03 389.53 938.05 360.26 C938.08 329.34 938.09 298.41 938.09 267.48 C938.09 264.09 938.09 260.69 938.09 257.3 C938.09 256.05 938.09 256.05 938.09 254.77 C938.09 241.31 938.1 227.85 938.12 214.39 C938.13 200.87 938.14 187.35 938.13 173.82 C938.12 165.79 938.13 157.75 938.14 149.71 C938.15 143.72 938.15 137.72 938.14 131.72 C938.14 129.3 938.14 126.87 938.15 124.44 C938.16 121.14 938.15 117.85 938.14 114.55 C938.15 113.6 938.15 112.65 938.16 111.68 C938.11 105.04 937.3 99.17 932.9 93.89 C922.08 85.08 910.92 85.98 897.39 86 C895.95 86 894.5 86 893.05 85.99 C889.08 85.99 885.11 85.99 881.14 85.99 C876.81 85.99 872.49 85.99 868.17 85.99 C860.59 85.98 853.02 85.98 845.45 85.98 C834.18 85.98 822.92 85.98 811.65 85.97 C790.37 85.96 769.08 85.96 747.79 85.96 C731.36 85.96 714.92 85.96 698.48 85.95 C693.75 85.95 689.02 85.95 684.29 85.95 C683.12 85.95 681.94 85.95 680.73 85.95 C647.65 85.95 614.57 85.94 581.49 85.94 C580.24 85.94 578.99 85.94 577.71 85.94 C571.39 85.94 565.07 85.94 558.74 85.94 C557.49 85.94 556.23 85.94 554.94 85.94 C552.4 85.94 549.86 85.94 547.32 85.94 C507.81 85.94 468.3 85.94 428.79 85.92 C384.41 85.91 340.03 85.9 295.65 85.9 C290.92 85.9 286.18 85.9 281.45 85.9 C280.29 85.9 279.12 85.9 277.92 85.9 C259.17 85.9 240.41 85.89 221.66 85.88 C202.81 85.88 183.97 85.87 165.12 85.88 C153.92 85.88 142.73 85.88 131.53 85.87 C124.05 85.87 116.57 85.87 109.09 85.88 C104.83 85.88 100.57 85.88 96.3 85.87 C92.42 85.86 88.54 85.87 84.66 85.88 C82.62 85.88 80.57 85.87 78.53 85.86 C60.58 85.81 60.58 85.81 46.02 95 Z M1021.77 806.13 C1022.77 810.13 1022.77 810.13 1022.77 810.13 Z " fill="#1E5A73" transform="translate(150.23259055614471,83.87234950065613)"/>
<path d="M0 0 C37.75 -0.01 75.5 -0.01 113.25 -0.02 C113.98 -0.02 114.72 -0.02 115.48 -0.02 C194.61 -0.03 273.73 -0.04 352.85 -0.04 C354.61 -0.04 356.37 -0.04 358.12 -0.04 C395 -0.05 431.87 -0.05 468.75 -0.05 C487.27 -0.05 505.8 -0.05 524.32 -0.05 C527.11 -0.05 529.91 -0.06 532.7 -0.06 C575.74 -0.06 618.79 -0.06 661.83 -0.07 C662.75 -0.07 663.68 -0.07 664.63 -0.07 C679.56 -0.07 694.49 -0.07 709.42 -0.08 C752.4 -0.08 795.39 -0.09 838.37 -0.09 C839.26 -0.09 840.14 -0.09 841.05 -0.09 C860.44 -0.09 879.83 -0.09 899.22 -0.09 C907.02 -0.09 914.82 -0.09 922.62 -0.09 C923.9 -0.09 923.9 -0.09 925.2 -0.09 C952.74 -0.1 980.28 -0.1 1007.82 -0.11 C1035.55 -0.11 1063.27 -0.12 1091 -0.11 C1094.82 -0.11 1098.65 -0.11 1102.47 -0.11 C1103.22 -0.11 1103.97 -0.11 1104.75 -0.11 C1116.65 -0.11 1128.56 -0.12 1140.47 -0.12 C1152.16 -0.12 1163.85 -0.12 1175.54 -0.12 C1181.8 -0.12 1188.06 -0.12 1194.32 -0.12 C1200 -0.13 1205.68 -0.13 1211.37 -0.12 C1213.42 -0.12 1215.48 -0.12 1217.53 -0.13 C1220.3 -0.13 1223.07 -0.13 1225.84 -0.12 C1227.05 -0.13 1227.05 -0.13 1228.29 -0.13 C1233.77 -0.11 1233.77 -0.11 1236 1 C1236.05 10.19 1236.08 19.38 1236.1 28.56 C1236.11 32.83 1236.13 37.1 1236.15 41.36 C1236.17 45.48 1236.18 49.6 1236.19 53.72 C1236.19 55.29 1236.2 56.86 1236.21 58.43 C1236.23 60.63 1236.23 62.83 1236.23 65.03 C1236.23 66.28 1236.24 67.53 1236.24 68.82 C1235.98 72.2 1235.43 74.57 1233 77 C1233 77.99 1233 78.98 1233 80 C1230.88 82.67 1229.56 83.85 1226.25 84.75 C1225.51 84.83 1224.77 84.91 1224 85 C1224 85.33 1224 85.66 1224 86 C1186.94 86.01 1149.87 86.02 1112.81 86.03 C1112.08 86.03 1111.36 86.03 1110.61 86.03 C1032.91 86.05 955.22 86.07 877.52 86.08 C875.8 86.08 874.07 86.09 872.35 86.09 C836.14 86.09 799.92 86.1 763.71 86.1 C745.52 86.1 727.33 86.11 709.14 86.11 C706.4 86.11 703.65 86.11 700.91 86.11 C658.64 86.12 616.38 86.12 574.11 86.14 C572.75 86.14 572.75 86.14 571.36 86.14 C556.7 86.14 542.04 86.15 527.38 86.15 C485.17 86.16 442.97 86.18 400.76 86.18 C399.46 86.18 399.46 86.18 398.13 86.18 C379.09 86.18 360.05 86.19 341.01 86.19 C333.35 86.19 325.68 86.19 318.02 86.19 C317.19 86.19 316.35 86.19 315.48 86.19 C288.44 86.19 261.4 86.2 234.36 86.21 C207.14 86.22 179.91 86.23 152.68 86.23 C148.93 86.23 145.17 86.23 141.41 86.23 C140.67 86.23 139.94 86.23 139.18 86.23 C127.49 86.23 115.8 86.23 104.11 86.24 C92.63 86.25 81.15 86.25 69.67 86.24 C63.52 86.24 57.38 86.24 51.23 86.25 C45.65 86.26 40.06 86.26 34.48 86.25 C32.47 86.25 30.45 86.25 28.43 86.25 C25.71 86.26 22.99 86.26 20.27 86.25 C19.48 86.25 18.69 86.26 17.88 86.26 C10.52 86.22 7.42 83.84 2 79 C-0.4 75.4 -0.27 72.84 -0.23 68.68 C-0.23 67.94 -0.23 67.2 -0.23 66.44 C-0.23 63.98 -0.21 61.53 -0.2 59.08 C-0.19 57.38 -0.19 55.68 -0.19 53.98 C-0.18 49.51 -0.16 45.04 -0.14 40.56 C-0.12 36 -0.11 31.43 -0.1 26.87 C-0.08 17.91 -0.04 8.96 0 0 Z M1233 69 C1234 71 1234 71 1234 71 Z M1230 77 C1230 77.66 1230 78.32 1230 79 C1230.66 78.67 1231.32 78.34 1232 78 C1231.34 77.67 1230.68 77.34 1230 77 Z M1228 78 C1227.34 79.32 1226.68 80.64 1226 82 C1227.32 81.67 1228.64 81.34 1230 81 C1229.34 80.01 1228.68 79.02 1228 78 Z " fill="#ABBBCC" transform="translate(22,1108)"/>
<path d="M0 0 C1.5 -0.01 3.01 -0.01 4.51 -0.02 C8.63 -0.04 12.74 -0.03 16.85 -0.01 C21.29 0 25.74 -0.01 30.18 -0.02 C38.87 -0.04 47.57 -0.03 56.26 -0.02 C63.33 -0 70.4 0 77.46 -0 C78.47 -0 79.48 -0 80.51 -0 C82.56 -0 84.6 -0.01 86.65 -0.01 C104.72 -0.02 122.79 0 140.86 0.03 C158.4 0.06 175.93 0.07 193.46 0.05 C212.56 0.04 231.66 0.03 250.76 0.05 C252.8 0.05 254.83 0.05 256.87 0.05 C258.37 0.06 258.37 0.06 259.91 0.06 C266.96 0.06 274.02 0.06 281.08 0.05 C289.68 0.04 298.28 0.05 306.89 0.08 C311.27 0.09 315.66 0.1 320.05 0.08 C324.07 0.07 328.08 0.08 332.1 0.11 C333.55 0.11 335.01 0.11 336.46 0.1 C345.46 0.05 352.17 0.3 359.14 6.51 C364.02 12.93 366.89 19.81 369.72 27.32 C370.23 28.64 370.75 29.97 371.26 31.29 C372.33 34.03 373.39 36.78 374.45 39.53 C376.69 45.34 379.02 51.12 381.35 56.9 C382.59 59.98 383.82 63.08 385.05 66.17 C386.83 70.63 388.62 75.1 390.43 79.55 C391.47 82.13 392.51 84.7 393.54 87.28 C394.26 89.08 395 90.88 395.73 92.67 C396.17 93.76 396.6 94.85 397.05 95.97 C397.43 96.92 397.82 97.87 398.21 98.85 C399.03 101.63 399.03 101.63 399.03 107.63 C245.58 107.63 92.13 107.63 -65.97 107.63 C-67.09 103.13 -67.09 103.13 -65.76 99.78 C-65.32 98.66 -65.32 98.66 -64.87 97.51 C-64.54 96.69 -64.21 95.88 -63.87 95.04 C-63.53 94.17 -63.19 93.31 -62.84 92.42 C-61.7 89.55 -60.55 86.69 -59.4 83.83 C-58.61 81.84 -57.81 79.85 -57.02 77.85 C-55.35 73.67 -53.67 69.49 -51.99 65.31 C-49.84 59.98 -47.72 54.63 -45.59 49.28 C-43.96 45.16 -42.31 41.04 -40.65 36.93 C-39.87 34.96 -39.08 32.99 -38.3 31.02 C-37.2 28.25 -36.09 25.49 -34.97 22.73 C-34.65 21.93 -34.34 21.12 -34.01 20.29 C-30.5 11.73 -26.51 5.7 -17.99 1.65 C-12.13 -0.33 -6.12 -0.05 0 0 Z " fill="#DAEAF5" transform="translate(472.9675598144531,1001.3718109130859)"/>
<path d="M0 0 C0.93 -0 1.86 -0.01 2.81 -0.01 C4.34 -0.01 4.34 -0.01 5.9 -0.01 C6.99 -0.02 8.07 -0.02 9.19 -0.02 C12.83 -0.04 16.48 -0.04 20.13 -0.04 C22.74 -0.05 25.35 -0.06 27.95 -0.06 C35.8 -0.08 43.64 -0.09 51.48 -0.1 C55.17 -0.11 58.86 -0.11 62.55 -0.12 C74.83 -0.13 87.1 -0.15 99.38 -0.16 C102.56 -0.16 105.75 -0.16 108.93 -0.16 C109.73 -0.16 110.52 -0.16 111.33 -0.16 C124.16 -0.17 136.98 -0.2 149.8 -0.23 C162.97 -0.26 176.14 -0.28 189.31 -0.28 C196.7 -0.28 204.09 -0.29 211.48 -0.32 C218.44 -0.34 225.39 -0.35 232.35 -0.34 C234.9 -0.34 237.45 -0.34 240 -0.36 C243.49 -0.37 246.97 -0.37 250.46 -0.35 C251.47 -0.36 252.48 -0.38 253.52 -0.39 C260.65 -0.32 266.22 1.06 271.52 6.03 C276.24 12.72 278.18 18.41 277.1 26.64 C275.74 32.29 272.91 36.03 268.37 39.57 C264.72 41.56 262.08 42.26 257.99 42.27 C257.06 42.28 256.13 42.28 255.17 42.29 C253.64 42.29 253.64 42.29 252.07 42.29 C250.98 42.29 249.9 42.3 248.78 42.3 C245.12 42.31 241.46 42.32 237.81 42.33 C235.19 42.33 232.58 42.34 229.96 42.35 C222.1 42.38 214.24 42.39 206.38 42.4 C204.16 42.41 201.94 42.41 199.72 42.42 C185.92 42.44 172.13 42.46 158.33 42.48 C155.14 42.48 151.94 42.48 148.75 42.48 C147.95 42.49 147.16 42.49 146.34 42.49 C133.48 42.5 120.62 42.53 107.77 42.57 C94.56 42.62 81.36 42.64 68.15 42.65 C60.74 42.65 53.32 42.66 45.91 42.69 C38.94 42.72 31.96 42.73 24.98 42.72 C22.43 42.72 19.87 42.73 17.31 42.74 C13.81 42.77 10.32 42.76 6.82 42.74 C5.81 42.76 4.8 42.77 3.76 42.78 C-3.29 42.71 -8.57 40.99 -14.5 37.13 C-18.83 32.69 -20.8 28.71 -20.94 22.51 C-20.81 16.14 -19.4 11.22 -15.5 6.13 C-10.84 2.2 -6.13 0.01 0 0 Z " fill="#E86373" transform="translate(532.5010175704956,596.8657789230347)"/>
<path d="M0 0 C1.49 -0.01 1.49 -0.01 3.02 -0.02 C6.33 -0.03 9.64 -0.02 12.96 -0 C15.34 -0 17.72 -0.01 20.11 -0.02 C25.9 -0.03 31.69 -0.02 37.48 -0.01 C44.23 0.01 50.98 0.01 57.73 0 C69.77 -0 81.81 0.01 93.85 0.03 C105.53 0.06 117.21 0.07 128.89 0.06 C141.61 0.04 154.34 0.04 167.07 0.06 C168.43 0.06 169.79 0.06 171.15 0.06 C171.81 0.06 172.48 0.06 173.17 0.06 C177.87 0.07 182.57 0.07 187.27 0.06 C193.6 0.06 199.93 0.07 206.26 0.09 C208.58 0.09 210.9 0.09 213.22 0.09 C216.39 0.08 219.56 0.1 222.73 0.11 C223.65 0.11 224.57 0.1 225.52 0.1 C231.91 0.16 236.93 1.01 241.88 5.4 C242.43 6.08 242.98 6.75 243.55 7.44 C244.12 8.11 244.68 8.78 245.26 9.47 C249.65 15.5 249.3 21.21 248.74 28.5 C247.03 34.26 242.63 38.18 237.74 41.5 C232.43 43.77 227.59 43.79 221.92 43.76 C220.45 43.77 220.45 43.77 218.94 43.77 C215.65 43.78 212.36 43.78 209.06 43.78 C206.7 43.78 204.34 43.79 201.98 43.79 C195.56 43.8 189.15 43.81 182.73 43.8 C178.72 43.8 174.71 43.8 170.71 43.81 C170.04 43.81 169.37 43.81 168.69 43.81 C167.34 43.81 165.98 43.81 164.63 43.81 C151.95 43.82 139.27 43.82 126.59 43.82 C115 43.81 103.41 43.82 91.82 43.84 C79.91 43.86 68 43.87 56.09 43.86 C49.4 43.86 42.72 43.87 36.03 43.88 C29.75 43.89 23.46 43.89 17.18 43.88 C14.87 43.87 12.57 43.88 10.26 43.89 C7.11 43.9 3.96 43.89 0.81 43.88 C-0.55 43.89 -0.55 43.89 -1.95 43.9 C-11.27 43.82 -17.6 40.97 -24.4 34.54 C-28.14 30.44 -28.73 26.11 -28.58 20.65 C-27.62 14.15 -24.42 8.52 -19.26 4.5 C-12.84 0.85 -7.3 -0.08 0 0 Z " fill="#7BEBFE" transform="translate(710.2604064941406,681.4987945556641)"/>
<path d="M0 0 C0.73 -0 1.45 -0.01 2.2 -0.01 C4.62 -0.02 7.05 -0.02 9.47 -0.01 C11.21 -0.02 12.95 -0.02 14.69 -0.03 C19.42 -0.04 24.14 -0.04 28.86 -0.04 C32.81 -0.04 36.76 -0.04 40.7 -0.05 C50.01 -0.06 59.33 -0.06 68.64 -0.05 C78.24 -0.05 87.84 -0.06 97.43 -0.08 C105.68 -0.1 113.93 -0.11 122.18 -0.1 C127.1 -0.1 132.02 -0.1 136.95 -0.12 C141.58 -0.13 146.21 -0.13 150.84 -0.12 C152.54 -0.11 154.23 -0.12 155.93 -0.12 C158.25 -0.13 160.57 -0.13 162.9 -0.11 C164.84 -0.11 164.84 -0.11 166.83 -0.11 C171.86 0.39 176.56 1.62 180.56 4.87 C181.94 6.64 183.29 8.42 184.57 10.26 C185.19 11.15 185.81 12.03 186.45 12.95 C188.52 19.04 188.43 25.43 186.57 31.57 C182.23 37.42 177.64 41.3 170.57 43.26 C168.12 43.44 165.65 43.52 163.19 43.52 C162.47 43.53 161.74 43.53 161 43.53 C158.59 43.54 156.18 43.54 153.77 43.54 C152.04 43.54 150.31 43.54 148.58 43.55 C143.88 43.56 139.18 43.56 134.49 43.56 C130.56 43.56 126.64 43.57 122.72 43.57 C113.46 43.58 104.2 43.58 94.94 43.58 C85.39 43.57 75.85 43.58 66.31 43.6 C58.11 43.62 49.9 43.63 41.7 43.62 C36.81 43.62 31.91 43.63 27.02 43.64 C22.41 43.65 17.81 43.65 13.2 43.64 C11.52 43.63 9.83 43.64 8.14 43.65 C-3.92 43.7 -12.37 43.04 -21.57 34.37 C-24.96 30.51 -25.25 26.82 -25.8 21.89 C-24.98 13.91 -21.64 8.82 -15.62 3.67 C-10.63 0.47 -5.83 0.01 0 0 Z " fill="#E86373" transform="translate(451.4252624511719,425.7393035888672)"/>
<path d="M0 0 C1.12 -0.01 1.12 -0.01 2.27 -0.01 C4.79 -0.02 7.31 -0.03 9.83 -0.03 C11.63 -0.04 13.44 -0.04 15.24 -0.05 C20.15 -0.07 25.05 -0.08 29.96 -0.09 C33.02 -0.09 36.08 -0.1 39.15 -0.1 C48.73 -0.12 58.31 -0.14 67.9 -0.15 C78.96 -0.15 90.03 -0.18 101.1 -0.22 C109.65 -0.25 118.2 -0.27 126.75 -0.27 C131.86 -0.27 136.97 -0.28 142.08 -0.31 C146.88 -0.33 151.69 -0.33 156.49 -0.32 C158.26 -0.32 160.02 -0.33 161.78 -0.34 C164.19 -0.36 166.6 -0.35 169.01 -0.34 C169.7 -0.35 170.4 -0.36 171.12 -0.37 C176.08 -0.31 178.85 1.09 182.69 4.15 C184.56 6.22 184.56 6.22 186.01 8.27 C186.5 8.96 186.99 9.64 187.5 10.34 C189.98 14.08 189.92 16.9 190.01 21.4 C190.06 23.35 190.06 23.35 190.12 25.35 C189.53 30.58 187.5 33.5 183.66 37.01 C182.99 37.49 182.32 37.97 181.63 38.46 C180.62 39.2 180.62 39.2 179.6 39.95 C175.63 42.45 172.11 42.28 167.54 42.31 C166.8 42.31 166.07 42.32 165.31 42.32 C162.85 42.34 160.38 42.35 157.91 42.36 C156.15 42.37 154.38 42.38 152.62 42.39 C146.81 42.42 141 42.44 135.19 42.46 C134.21 42.46 133.22 42.46 132.2 42.47 C122.87 42.5 113.55 42.52 104.22 42.54 C92.3 42.56 80.38 42.6 68.46 42.67 C60.07 42.72 51.69 42.75 43.3 42.75 C38.3 42.76 33.29 42.77 28.29 42.81 C23.57 42.85 18.86 42.86 14.14 42.84 C12.42 42.84 10.69 42.85 8.97 42.88 C-0.99 42.99 -9.04 42.44 -17.31 36.15 C-22.73 30.59 -22.77 25.24 -22.72 17.74 C-22.02 11.68 -19.25 7.67 -14.68 3.75 C-9.89 0.37 -5.66 -0 0 0 Z " fill="#E1BA33" transform="translate(342.3057403564453,511.8528289794922)"/>
<path d="M0 0 C1.53 -0 3.05 -0.01 4.58 -0.02 C8.7 -0.03 12.82 -0.02 16.95 -0.01 C21.27 -0.01 25.6 -0.01 29.92 -0.02 C37.19 -0.02 44.45 -0.02 51.71 -0 C60.1 0.01 68.48 0.01 76.87 -0.01 C84.08 -0.02 91.29 -0.02 98.5 -0.02 C102.8 -0.01 107.1 -0.01 111.41 -0.02 C115.45 -0.03 119.5 -0.02 123.54 -0.01 C125.02 -0 126.5 -0 127.98 -0.01 C144.74 -0.08 144.74 -0.08 151.14 5.26 C151.68 5.92 152.22 6.58 152.77 7.26 C153.33 7.92 153.88 8.58 154.45 9.26 C158.51 15.24 158.78 21.35 157.9 28.39 C155.72 34.09 151.77 37.89 146.9 41.39 C143.53 42.51 140.98 42.52 137.43 42.53 C136.77 42.53 136.11 42.53 135.43 42.54 C133.21 42.55 131 42.55 128.78 42.55 C127.2 42.55 125.61 42.56 124.02 42.56 C119.71 42.58 115.39 42.58 111.08 42.59 C108.38 42.59 105.69 42.6 102.99 42.6 C94.56 42.61 86.13 42.62 77.7 42.63 C67.96 42.63 58.23 42.65 48.5 42.68 C40.97 42.7 33.45 42.71 25.92 42.71 C21.43 42.71 16.94 42.72 12.44 42.74 C8.21 42.75 3.99 42.75 -0.24 42.75 C-1.79 42.75 -3.34 42.75 -4.89 42.76 C-7.01 42.77 -9.13 42.77 -11.25 42.76 C-12.44 42.76 -13.62 42.76 -14.84 42.76 C-21.38 42.01 -26.77 38.21 -31.1 33.39 C-34.04 28.63 -34.56 24.08 -33.67 18.62 C-31.94 11.85 -28.97 7.34 -23.1 3.39 C-15.59 -0.33 -8.24 -0.04 0 0 Z " fill="#E86373" transform="translate(481.1015625,681.61181640625)"/>
<path d="M0 0 C1.39 -0.02 1.39 -0.02 2.81 -0.04 C7.82 0.38 10.47 1.97 13.93 5.52 C15.94 7.58 17.99 9.61 20.03 11.64 C24.23 15.83 28.44 20.02 32.64 24.21 C35.17 26.74 37.7 29.26 40.24 31.79 C42.7 34.24 45.17 36.7 47.63 39.16 C49.02 40.54 50.41 41.92 51.79 43.31 C52.64 44.15 53.48 45 54.35 45.87 C55.47 46.98 55.47 46.98 56.6 48.11 C61.28 53.07 63.33 57.23 63.88 64.12 C63.31 79.08 45.34 91.66 35.57 101.48 C33.89 103.16 32.22 104.86 30.56 106.55 C28.12 109.03 25.67 111.49 23.22 113.96 C22.48 114.71 21.75 115.46 20.99 116.24 C15.69 121.51 10.04 126.25 2.56 127.82 C-5.91 127.6 -12.28 125.17 -18.44 119.19 C-22.51 113.7 -22.39 106.73 -21.44 100.19 C-19.15 94.18 -15.72 89.91 -11.14 85.5 C-10.55 84.91 -9.95 84.32 -9.34 83.72 C-7.47 81.86 -5.58 80.03 -3.69 78.19 C-2.4 76.92 -1.12 75.66 0.16 74.39 C3.28 71.31 6.42 68.25 9.56 65.19 C8.27 61.01 7.48 58.59 3.94 55.94 C2.02 54.48 2.02 54.48 0.56 53.19 C0.56 52.53 0.56 51.87 0.56 51.19 C-0.08 50.92 -0.72 50.65 -1.38 50.38 C-3.44 49.19 -3.44 49.19 -4.44 46.19 C-5.1 45.86 -5.76 45.53 -6.44 45.19 C-8.44 44.19 -8.44 44.19 -9.44 41.19 C-10.1 40.86 -10.76 40.53 -11.44 40.19 C-13.44 39.19 -13.44 39.19 -14.44 36.19 C-15.06 35.94 -15.67 35.69 -16.31 35.44 C-18.94 33.89 -19.83 32.19 -20.89 29.38 C-22.54 22.73 -22.3 16.03 -18.84 10.04 C-13.56 3.07 -8.67 0.06 0 0 Z " fill="#F9FCFE" transform="translate(533.4375,255.8125)"/>
<path d="M0 0 C0.8 0 1.6 0.01 2.42 0.01 C7.73 0.68 10.55 2.67 14 6.69 C14.67 7.46 15.35 8.23 16.04 9.02 C19.32 13.26 20.14 16.17 20.25 21.56 C20.31 23.18 20.31 23.18 20.37 24.83 C18.59 35.97 7.33 43.94 -0.43 51.34 C-2.22 53.06 -4 54.78 -5.77 56.52 C-6.61 57.3 -6.61 57.3 -7.46 58.1 C-10.3 60.75 -10.3 60.75 -11.35 64.34 C-9.66 67.2 -7.44 69.37 -5.05 71.64 C-4.53 72.14 -4.02 72.65 -3.48 73.17 C-1.28 75.32 0.94 77.46 3.16 79.6 C20.27 96.13 20.27 96.13 21.06 106.62 C20.56 114.01 17.04 119.32 11.81 124.31 C7.2 127.72 2.65 127.73 -2.89 127.91 C-12.8 126.12 -19.48 118.6 -26.28 111.72 C-27.31 110.68 -28.35 109.65 -29.39 108.61 C-31.54 106.46 -33.69 104.3 -35.84 102.13 C-38.58 99.36 -41.34 96.6 -44.11 93.85 C-46.24 91.72 -48.37 89.58 -50.5 87.44 C-51.51 86.43 -52.53 85.41 -53.55 84.39 C-54.97 82.97 -56.38 81.54 -57.79 80.12 C-58.59 79.31 -59.4 78.5 -60.22 77.66 C-63.67 73.54 -64.49 69.79 -64.56 64.5 C-64.59 63.52 -64.62 62.55 -64.65 61.54 C-63.27 51.89 -56.4 45.92 -49.8 39.36 C-48.77 38.32 -47.74 37.29 -46.71 36.25 C-44.56 34.09 -42.41 31.94 -40.24 29.79 C-37.49 27.05 -34.75 24.29 -32.02 21.53 C-29.9 19.39 -27.78 17.26 -25.64 15.14 C-24.63 14.13 -23.62 13.11 -22.62 12.09 C-15.86 5.25 -10.15 -0.22 0 0 Z " fill="#F9FCFE" transform="translate(320.1875,255.6875)"/>
<path d="M0 0 C0.97 -0.01 1.94 -0.01 2.94 -0.02 C4 -0.02 5.06 -0.02 6.15 -0.02 C7.27 -0.03 8.4 -0.03 9.55 -0.04 C13.26 -0.05 16.97 -0.06 20.68 -0.06 C23.26 -0.07 25.84 -0.07 28.42 -0.08 C33.13 -0.09 37.85 -0.1 42.57 -0.1 C49.5 -0.1 56.43 -0.12 63.36 -0.15 C69.37 -0.17 75.39 -0.18 81.4 -0.18 C83.95 -0.19 86.51 -0.19 89.06 -0.21 C92.64 -0.22 96.21 -0.22 99.78 -0.22 C100.84 -0.23 101.89 -0.23 102.97 -0.24 C109.78 -0.21 115.18 0.29 120.31 5.19 C125.1 11.7 128.01 16.8 127.16 25.14 C125.15 32.3 121.25 36.94 115.16 41.14 C112.26 42.11 110.37 42.28 107.35 42.3 C106.36 42.31 105.37 42.32 104.35 42.33 C102.72 42.34 102.72 42.34 101.06 42.35 C99.91 42.36 98.77 42.37 97.59 42.38 C93.79 42.41 89.99 42.43 86.19 42.45 C84.24 42.46 84.24 42.46 82.26 42.47 C76.8 42.49 71.34 42.52 65.89 42.53 C58.08 42.56 50.28 42.6 42.48 42.67 C36.99 42.71 31.49 42.74 26 42.75 C22.72 42.75 19.44 42.77 16.17 42.81 C12.5 42.84 8.84 42.85 5.17 42.84 C4.1 42.86 3.03 42.88 1.93 42.9 C-5.7 42.82 -10.8 40.81 -16.84 36.14 C-22.16 30.42 -22.43 25.62 -22.24 17.99 C-21.66 12.45 -19.81 9 -15.84 5.14 C-10.93 1.37 -6.09 0.02 0 0 Z " fill="#E2BB33" transform="translate(341.8377227783203,596.8595581054688)"/>
<path d="M0 0 C5.2 5.62 8.6 10.63 9.31 18.38 C8.76 24.73 6.31 29.62 3 35 C2.31 36.62 1.62 38.23 0.94 39.86 C-1.17 44.67 -3.63 49.32 -6 54 C-6.86 55.71 -7.71 57.42 -8.56 59.12 C-28.5 99 -28.5 99 -29.75 101.48 C-30.6 103.19 -31.43 104.91 -32.25 106.64 C-35.93 114.32 -39.65 120.72 -48 124 C-54.05 125.75 -58.86 124.99 -64.56 122.45 C-69.52 119.51 -74.15 115.54 -76 110 C-77.19 97.23 -72.43 88.62 -66.56 77.73 C-63.87 72.73 -61.38 67.66 -59 62.5 C-56.02 56.05 -52.8 49.78 -49.43 43.52 C-46.57 38.18 -43.94 32.74 -41.38 27.25 C-39.92 24.16 -38.46 21.08 -37 18 C-36.53 17.02 -36.53 17.02 -36.06 16.01 C-32.59 8.84 -29.07 2.16 -22 -2 C-14.9 -3.94 -6.07 -4.55 0 0 Z " fill="#F9FCFE" transform="translate(460,259)"/>
<path d="M0 0 C1.08 -0.01 1.08 -0.01 2.19 -0.02 C4.57 -0.03 6.95 -0.03 9.33 -0.03 C10.99 -0.03 12.65 -0.03 14.31 -0.04 C17.78 -0.05 21.26 -0.05 24.73 -0.04 C29.18 -0.04 33.63 -0.05 38.07 -0.08 C41.5 -0.09 44.93 -0.09 48.35 -0.09 C49.99 -0.09 51.63 -0.09 53.27 -0.1 C55.57 -0.12 57.86 -0.11 60.16 -0.1 C62.11 -0.1 62.11 -0.1 64.11 -0.1 C69.9 0.51 73.7 2.8 77.39 7.21 C77.97 7.88 78.54 8.55 79.13 9.24 C83.55 15.18 83.49 21.04 82.64 28.27 C80.16 34.81 75.63 38.81 69.43 41.86 C62.98 44.2 56.07 43.71 49.3 43.67 C47.81 43.68 46.32 43.68 44.83 43.68 C41.71 43.69 38.6 43.68 35.48 43.67 C31.51 43.65 27.54 43.66 23.57 43.68 C20.49 43.69 17.41 43.68 14.33 43.68 C12.87 43.67 11.41 43.68 9.94 43.68 C-0.18 43.72 -9.51 43.64 -17.29 36.4 C-18.03 35.74 -18.76 35.08 -19.51 34.41 C-23.39 29.92 -23.76 25.55 -23.6 19.83 C-22.91 12.43 -20.12 8.47 -14.49 3.72 C-9.73 0.49 -5.71 0.02 0 0 Z " fill="#7BEBFE" transform="translate(876.357177734375,596.725341796875)"/>
<path d="M0 0 C1.51 0 3.03 -0 4.54 -0 C7.71 -0 10.87 0.01 14.03 0.03 C18.06 0.05 22.09 0.05 26.13 0.04 C29.25 0.04 32.38 0.05 35.5 0.06 C36.99 0.06 38.47 0.06 39.96 0.06 C58.37 0.06 58.37 0.06 63.52 4.1 C69.19 11.22 71.93 16.14 71.65 25.46 C70.87 32.03 67.15 35.89 62.29 40.1 C57.51 43.15 52.77 43.62 47.22 43.64 C46.54 43.64 45.86 43.65 45.15 43.65 C42.91 43.67 40.68 43.67 38.44 43.66 C36.87 43.67 35.3 43.67 33.74 43.68 C30.46 43.68 27.18 43.68 23.91 43.68 C19.72 43.67 15.53 43.69 11.34 43.71 C8.11 43.73 4.88 43.73 1.64 43.73 C0.1 43.73 -1.44 43.73 -2.99 43.74 C-5.15 43.75 -7.31 43.75 -9.47 43.74 C-11.32 43.74 -11.32 43.74 -13.19 43.74 C-20.38 42.97 -26.51 39.32 -31.69 34.36 C-35.04 28.93 -35.54 23.59 -34.69 17.36 C-32.93 11.1 -30.25 6.93 -24.69 3.36 C-16.85 -0.47 -8.51 -0.06 0 0 Z " fill="#E2BB33" transform="translate(311.69140625,425.63671875)"/>
<path d="M0 0 C1.59 -0 1.59 -0 3.22 -0.01 C5.45 -0.01 7.69 -0 9.92 0 C13.33 0.02 16.74 0 20.15 -0.01 C22.33 -0.01 24.51 -0 26.69 0 C27.7 -0 28.71 -0.01 29.76 -0.01 C36.29 0.03 41.74 0.42 47.47 3.83 C52.92 9.42 55.17 14.45 55.47 22.33 C55.22 28.51 54.26 32.82 49.84 37.27 C42.16 43.91 33.02 43.42 23.31 43.43 C22 43.44 22 43.44 20.66 43.44 C18.82 43.45 16.98 43.45 15.14 43.45 C12.35 43.45 9.56 43.47 6.77 43.49 C4.97 43.49 3.17 43.5 1.38 43.5 C0.55 43.5 -0.27 43.51 -1.12 43.52 C-10.72 43.48 -18.02 41.91 -25.16 35.27 C-28.97 31.35 -29.46 28.19 -29.66 22.89 C-29.38 15.12 -27.51 10.21 -21.84 4.89 C-15.67 -0.46 -7.7 -0.03 0 0 Z " fill="#E2BB33" transform="translate(349.15625,681.734375)"/>
<path d="M0 0 C1.05 -0 1.05 -0 2.12 -0 C4.46 -0.01 6.8 -0.01 9.14 -0 C10.84 -0 12.54 -0.01 14.24 -0.01 C18.94 -0.01 23.63 -0.01 28.32 -0.01 C33.42 -0.01 38.52 -0.01 43.62 -0.01 C52.57 -0.02 61.51 -0.02 70.45 -0.02 C83.75 -0.02 97.05 -0.02 110.35 -0.03 C135.48 -0.04 160.61 -0.04 185.74 -0.04 C188.51 -0.04 191.29 -0.04 194.06 -0.04 C195.09 -0.04 195.09 -0.04 196.14 -0.04 C211.38 -0.04 226.62 -0.04 241.86 -0.05 C248.13 -0.05 254.4 -0.05 260.68 -0.05 C261.72 -0.05 261.72 -0.05 262.78 -0.05 C302.5 -0.06 342.21 -0.06 381.93 -0.06 C383.42 -0.06 384.91 -0.06 386.39 -0.06 C393.1 -0.06 399.82 -0.06 406.53 -0.06 C409.52 -0.06 412.51 -0.06 415.51 -0.06 C417 -0.06 418.5 -0.06 420 -0.06 C467.39 -0.06 514.77 -0.07 562.16 -0.08 C574.1 -0.08 586.05 -0.09 597.99 -0.09 C598.73 -0.09 599.46 -0.09 600.22 -0.09 C622.87 -0.1 645.53 -0.1 668.18 -0.1 C669.25 -0.1 669.25 -0.1 670.34 -0.1 C685.94 -0.1 701.55 -0.1 717.15 -0.1 C722.73 -0.1 728.32 -0.1 733.9 -0.1 C735.29 -0.1 736.68 -0.1 738.07 -0.1 C760.22 -0.1 782.38 -0.11 804.53 -0.12 C827.45 -0.13 850.37 -0.13 873.3 -0.12 C886.52 -0.12 899.75 -0.12 912.97 -0.13 C921.79 -0.13 930.61 -0.13 939.44 -0.13 C944.47 -0.12 949.5 -0.12 954.54 -0.13 C959.11 -0.14 963.68 -0.13 968.26 -0.13 C969.91 -0.12 971.56 -0.12 973.21 -0.13 C975.44 -0.14 977.67 -0.13 979.9 -0.12 C981.14 -0.12 982.38 -0.12 983.65 -0.12 C986.61 0.11 988.28 0.57 990.76 2.13 C990.76 2.46 990.76 2.79 990.76 3.13 C659.44 3.13 328.12 3.13 -13.24 3.13 C-13.57 2.47 -13.9 1.81 -14.24 1.13 C-9.44 0.35 -4.85 0 0 0 Z " fill="#284D5D" transform="translate(150.23834389448166,83.87350016832352)"/>
<path d="M0 0 C36.8 -0.01 73.6 -0.01 110.4 -0.02 C111.12 -0.02 111.84 -0.02 112.58 -0.02 C189.72 -0.03 266.85 -0.04 343.99 -0.04 C345.7 -0.04 347.41 -0.04 349.12 -0.04 C385.07 -0.05 421.02 -0.05 456.97 -0.05 C475.03 -0.05 493.09 -0.05 511.14 -0.05 C513.87 -0.05 516.59 -0.06 519.32 -0.06 C561.28 -0.06 603.24 -0.06 645.2 -0.07 C646.55 -0.07 646.55 -0.07 647.93 -0.07 C662.49 -0.07 677.04 -0.07 691.59 -0.08 C733.5 -0.08 775.4 -0.09 817.31 -0.09 C818.17 -0.09 819.03 -0.09 819.92 -0.09 C838.82 -0.09 857.72 -0.09 876.62 -0.09 C884.23 -0.09 891.83 -0.09 899.44 -0.09 C900.68 -0.09 900.68 -0.09 901.96 -0.09 C928.8 -0.1 955.65 -0.1 982.5 -0.11 C1009.53 -0.11 1036.55 -0.12 1063.58 -0.11 C1067.31 -0.11 1071.04 -0.11 1074.77 -0.11 C1075.5 -0.11 1076.24 -0.11 1076.99 -0.11 C1088.6 -0.11 1100.2 -0.12 1111.81 -0.12 C1123.21 -0.12 1134.6 -0.12 1146 -0.12 C1152.1 -0.12 1158.21 -0.12 1164.31 -0.12 C1169.85 -0.13 1175.39 -0.13 1180.93 -0.12 C1182.93 -0.12 1184.94 -0.12 1186.94 -0.13 C1189.64 -0.13 1192.34 -0.13 1195.04 -0.12 C1195.83 -0.13 1196.61 -0.13 1197.43 -0.13 C1202.77 -0.11 1202.77 -0.11 1205 1 C1205 1.66 1205 2.32 1205 3 C1168.38 3.01 1131.76 3.01 1095.14 3.02 C1094.06 3.02 1094.06 3.02 1092.97 3.02 C1016.2 3.03 939.43 3.04 862.66 3.04 C860.95 3.04 859.25 3.04 857.54 3.04 C821.75 3.05 785.97 3.05 750.18 3.05 C732.21 3.05 714.23 3.05 696.25 3.05 C693.54 3.05 690.83 3.06 688.12 3.06 C646.36 3.06 604.59 3.06 562.83 3.07 C561.48 3.07 561.48 3.07 560.11 3.07 C545.62 3.07 531.14 3.07 516.66 3.08 C474.96 3.08 433.25 3.09 391.55 3.09 C390.26 3.09 390.26 3.09 388.95 3.09 C370.13 3.09 351.31 3.09 332.49 3.09 C324.92 3.09 317.35 3.09 309.78 3.09 C308.54 3.09 308.54 3.09 307.27 3.09 C280.55 3.1 253.83 3.1 227.12 3.11 C200.21 3.11 173.31 3.12 146.41 3.11 C142.69 3.11 138.98 3.11 135.26 3.11 C134.53 3.11 133.8 3.11 133.05 3.11 C121.51 3.11 109.96 3.12 98.41 3.12 C87.07 3.12 75.72 3.12 64.38 3.12 C58.3 3.12 52.23 3.12 46.16 3.12 C40.64 3.13 35.12 3.13 29.6 3.12 C27.61 3.12 25.62 3.12 23.63 3.13 C20.94 3.13 18.24 3.13 15.55 3.12 C14.78 3.13 14.01 3.13 13.21 3.13 C8.71 3.12 4.44 2.74 0 2 C0 1.34 0 0.68 0 0 Z " fill="#5E7D8E" transform="translate(32,1190)"/>
<path d="M0 0 C398.64 0 797.28 0 1208 0 C1208 0.33 1208 0.66 1208 1 C809.36 1 410.72 1 0 1 C0 0.67 0 0.34 0 0 Z " fill="#000102" transform="translate(36,1195)"/>
<path d="M0 0 C0.33 0 0.66 0 1 0 C1.03 7.54 1.04 15.09 1.05 22.63 C1.06 25.2 1.07 27.76 1.08 30.33 C1.09 34.02 1.09 37.71 1.1 41.41 C1.1 42.55 1.11 43.69 1.11 44.86 C1.11 50.67 0.88 56.25 0 62 C-2 60 -2 60 -2.24 57.6 C-2.24 56.59 -2.23 55.58 -2.23 54.54 C-2.23 53.4 -2.23 52.26 -2.23 51.08 C-2.22 49.85 -2.21 48.61 -2.2 47.34 C-2.19 46.07 -2.19 44.81 -2.19 43.51 C-2.18 40.15 -2.16 36.8 -2.14 33.44 C-2.12 30.01 -2.11 26.59 -2.1 23.16 C-2.08 16.44 -2.04 9.72 -2 3 C-1.34 3 -0.68 3 0 3 C0 2.01 0 1.02 0 0 Z " fill="#5989A0" transform="translate(1257,1117)"/>
<path d="M0 0 C0.33 0 0.66 0 1 0 C1 21.12 1 42.24 1 64 C0.67 64 0.34 64 0 64 C0 42.88 0 21.76 0 0 Z " fill="#000102" transform="translate(1260,1111)"/>
<path d="M0 0 C2 1 2 1 2 1 Z " fill="#000102" transform="translate(30,1192)"/>
<path d="" fill="#061820" transform="translate(0,0)"/>
<path d="" fill="#000102" transform="translate(0,0)"/>
<path d="" fill="#000102" transform="translate(0,0)"/>
<path d="" fill="#000102" transform="translate(0,0)"/>
<path d="" fill="#000102" transform="translate(0,0)"/>
<path d="" fill="#000102" transform="translate(0,0)"/>
<path d="" fill="#000102" transform="translate(0,0)"/>
<path d="" fill="#636E78" transform="translate(0,0)"/>
<path d="" fill="#000102" transform="translate(0,0)"/>
<path d="" fill="#000102" transform="translate(0,0)"/>
<path d="" fill="#000102" transform="translate(0,0)"/>
<path d="" fill="#000102" transform="translate(0,0)"/>
<path d="" fill="#000102" transform="translate(0,0)"/>
<path d="" fill="#000102" transform="translate(0,0)"/>
<path d="" fill="#000102" transform="translate(0,0)"/>
<path d="" fill="#000102" transform="translate(0,0)"/>
<path d="" fill="#000102" transform="translate(0,0)"/>
<path d="" fill="#000102" transform="translate(0,0)"/>
<path d="" fill="#000102" transform="translate(0,0)"/>
<path d="" fill="#000102" transform="translate(0,0)"/>
<path d="" fill="#000102" transform="translate(0,0)"/>
<path d="" fill="#000102" transform="translate(0,0)"/>
<path d="" fill="#000102" transform="translate(0,0)"/>
</svg>
